# xmcd
#
# Track frame offsets:
#	150
#	12940
#	24237
#	38205
#	52390
#	63852
#	79250
#	92237
#	108002
#	122482
#	142272
#	156827
#	168945
#	183085
#	191700
#	207252
#	221075
#	230575
#	242485
#	253852
#	264182
#	276487
#	287017
#	298877
#
# Disc length: 4209
#
# Revision: 1
# Processed by: cddbd v1.5.1PL0 Copyright (c) Steve Scherf et al.
# Submitted via: dBpowerAMP V4.0
# Normalized: r0:TDELIM( - )
#
DISCID=66106f18
DTITLE=Various Artist - God Bless the U.S.A. Disc 4
DYEAR=1900
DGENRE=
TTITLE0=Jerry Reed - East Bound and Down
TTITLE1=Tanya Tucker - Pecos Promenade
TTITLE2=Keith Carradine - I'm Easy
TTITLE3=Sissy Spacek - Coal Miner's Daughter
TTITLE4=Glen Campbell - True Grit
TTITLE5=Willie Nelson - Everybody's Talkin'
TTITLE6=Waylon Jennings - My Heroes Have Always Been Cowboys
TTITLE7=Judds - Cow Cow Boogie
TTITLE8=Ronnie Milsap - Cowboys and Clowns
TTITLE9=Brenda Lee - The Cowgirl and the Dandy
TTITLE10=Charlie Pride - Burgers and Fries
TTITLE11=Statler Brothers - Class of '57
TTITLE12=K. T. Oslin - Younger Men
TTITLE13=Statler Brothers - Whatever Happened to Randolph Scott
TTITLE14=George Burns - I Wish I Was Eighteen Again
TTITLE15=Eddy Arnold - The Missouri Waltz
TTITLE16=Patsy Cline - Blue Moon of Kentucky
TTITLE17=Jim Reeves - I Love You Because
TTITLE18=Chet Atkins - El Paso
TTITLE19=Patti Page - Crazy Arms
TTITLE20=Willie Nelson - Wabash Cannonball
TTITLE21=Elvis Presley - America the Beautiful
TTITLE22=Elton Britt - There's a Star Spangled Banner Waving Somewhere
TTITLE23=Donna Fargo - U. S. Of A.
EXTD=Reader's Digest "God Bless the U.S.A.", patriotic compilation
EXTT0=
EXTT1=
EXTT2=
EXTT3=
EXTT4=
EXTT5=
EXTT6=
EXTT7=
EXTT8=
EXTT9=
EXTT10=
EXTT11=
EXTT12=
EXTT13=
EXTT14=
EXTT15=
EXTT16=
EXTT17=
EXTT18=
EXTT19=
EXTT20=
EXTT21=
EXTT22=
EXTT23=
PLAYORDER=
